<svg width="119" height="26" viewBox="0 0 119 26" fill="none" xmlns="http://www.w3.org/2000/svg">
<g filter="url(#filter0_d_1_428)">
<path d="M8.04 11.1294V14.9454H20.016V17.6094H4.848V2.08137H19.992V4.74537H8.04V8.60937H17.832V11.1294H8.04ZM23.2933 17.6094V2.08137H32.2453C34.3253 2.08137 35.9013 2.43337 36.9733 3.13737C38.0613 3.82537 38.6053 4.85737 38.6053 6.23337C38.6053 7.11337 38.3893 7.80937 37.9573 8.32137C37.5253 8.81737 36.9093 9.18537 36.1093 9.42537C35.3253 9.66537 34.3973 9.81737 33.3253 9.88137L33.4213 9.71337C34.2053 9.72937 34.9413 9.78537 35.6293 9.88137C36.3333 9.97737 36.9493 10.1534 37.4773 10.4094C38.0053 10.6654 38.4213 11.0254 38.7253 11.4894C39.0293 11.9374 39.1813 12.5294 39.1813 13.2654C39.1813 14.2254 38.9253 15.0254 38.4133 15.6654C37.9013 16.2894 37.1893 16.7614 36.2773 17.0814C35.3653 17.4014 34.3093 17.5774 33.1093 17.6094H23.2933ZM26.4853 14.9694H32.7733C33.7813 14.9694 34.5573 14.8094 35.1013 14.4894C35.6453 14.1534 35.9173 13.6254 35.9173 12.9054C35.9173 12.3774 35.7573 11.9934 35.4373 11.7534C35.1173 11.5134 34.6933 11.3694 34.1653 11.3214C33.6373 11.2574 33.0693 11.2254 32.4613 11.2254H26.4853V14.9694ZM26.4853 8.65737H32.1253C33.1333 8.65737 33.9093 8.51337 34.4533 8.22537C34.9973 7.92137 35.2693 7.40937 35.2693 6.68937C35.2693 5.96937 34.9973 5.46537 34.4533 5.17737C33.9093 4.87337 33.1893 4.72137 32.2933 4.72137H26.4853V8.65737ZM41.6119 5.68137H44.7319V17.6094H41.6119V5.68137ZM49.3159 8.24937C48.4199 8.24937 47.6439 8.42537 46.9879 8.77737C46.3319 9.11337 45.8039 9.52937 45.4039 10.0254C45.0039 10.5214 44.7239 11.0014 44.5639 11.4654L44.5399 10.1454C44.5559 9.95337 44.6199 9.67337 44.7319 9.30537C44.8439 8.92137 45.0119 8.51337 45.2359 8.08137C45.4599 7.63337 45.7559 7.20937 46.1239 6.80937C46.4919 6.39337 46.9399 6.05737 47.4679 5.80137C47.9959 5.54537 48.6119 5.41737 49.3159 5.41737V8.24937ZM57.0527 17.8734C55.8687 17.8734 54.7887 17.6174 53.8127 17.1054C52.8527 16.5774 52.0847 15.8494 51.5087 14.9214C50.9487 13.9774 50.6687 12.8894 50.6687 11.6574C50.6687 10.3934 50.9567 9.29737 51.5327 8.36937C52.1087 7.44137 52.8847 6.72137 53.8607 6.20937C54.8527 5.68137 55.9727 5.41737 57.2207 5.41737C58.5967 5.41737 59.7007 5.69737 60.5327 6.25737C61.3807 6.80137 61.9967 7.54537 62.3807 8.48937C62.7647 9.43337 62.9567 10.4894 62.9567 11.6574C62.9567 12.3614 62.8447 13.0814 62.6207 13.8174C62.3967 14.5374 62.0527 15.2094 61.5887 15.8334C61.1247 16.4414 60.5167 16.9374 59.7647 17.3214C59.0127 17.6894 58.1087 17.8734 57.0527 17.8734ZM58.0607 15.4734C59.0047 15.4734 59.8207 15.3134 60.5087 14.9934C61.1967 14.6734 61.7247 14.2254 62.0927 13.6494C62.4607 13.0734 62.6447 12.4094 62.6447 11.6574C62.6447 10.8414 62.4527 10.1534 62.0687 9.59337C61.7007 9.01737 61.1727 8.58537 60.4847 8.29737C59.8127 7.99337 59.0047 7.84137 58.0607 7.84137C56.7327 7.84137 55.7007 8.19337 54.9647 8.89737C54.2287 9.58537 53.8607 10.5054 53.8607 11.6574C53.8607 12.4254 54.0367 13.0974 54.3887 13.6734C54.7407 14.2334 55.2287 14.6734 55.8527 14.9934C56.4927 15.3134 57.2287 15.4734 58.0607 15.4734ZM62.6447 5.68137H65.7647V17.6094H62.8607C62.8607 17.6094 62.8367 17.4574 62.7887 17.1534C62.7567 16.8334 62.7247 16.4334 62.6927 15.9534C62.6607 15.4734 62.6447 15.0014 62.6447 14.5374V5.68137ZM68.5884 5.68137H71.7084V17.6094H68.5884V5.68137ZM77.2524 5.41737C77.9884 5.41737 78.6684 5.51337 79.2924 5.70537C79.9164 5.89737 80.4604 6.19337 80.9244 6.59337C81.3884 6.99337 81.7484 7.50537 82.0044 8.12937C82.2604 8.73737 82.3884 9.46537 82.3884 10.3134V17.6094H79.2684V10.8654C79.2684 9.85737 79.0204 9.12137 78.5244 8.65737C78.0444 8.17737 77.2524 7.93737 76.1484 7.93737C75.3164 7.93737 74.5644 8.09737 73.8924 8.41737C73.2204 8.73737 72.6764 9.14537 72.2604 9.64137C71.8444 10.1214 71.6044 10.6254 71.5404 11.1534L71.5164 9.92937C71.5964 9.36937 71.7804 8.82537 72.0684 8.29737C72.3564 7.76937 72.7404 7.28937 73.2204 6.85737C73.7164 6.40937 74.3004 6.05737 74.9724 5.80137C75.6444 5.54537 76.4044 5.41737 77.2524 5.41737ZM91.0371 17.8734C89.8371 17.8734 88.7491 17.6174 87.7731 17.1054C86.8131 16.5774 86.0531 15.8494 85.4931 14.9214C84.9331 13.9774 84.6531 12.8894 84.6531 11.6574C84.6531 10.3934 84.9251 9.29737 85.4691 8.36937C86.0291 7.44137 86.7891 6.72137 87.7491 6.20937C88.7091 5.68137 89.8051 5.41737 91.0371 5.41737C92.1091 5.41737 93.0211 5.57737 93.7731 5.89737C94.5251 6.21737 95.1331 6.66537 95.5971 7.24137C96.0611 7.80137 96.3971 8.45737 96.6051 9.20937C96.8291 9.96137 96.9411 10.7774 96.9411 11.6574C96.9411 12.3614 96.8291 13.0814 96.6051 13.8174C96.3811 14.5374 96.0371 15.2094 95.5731 15.8334C95.1091 16.4414 94.5011 16.9374 93.7491 17.3214C92.9971 17.6894 92.0931 17.8734 91.0371 17.8734ZM92.0451 15.4734C92.9891 15.4734 93.8051 15.3134 94.4931 14.9934C95.1811 14.6734 95.7091 14.2254 96.0771 13.6494C96.4451 13.0734 96.6291 12.4094 96.6291 11.6574C96.6291 10.8414 96.4371 10.1534 96.0531 9.59337C95.6851 9.01737 95.1571 8.57737 94.4691 8.27337C93.7971 7.96937 92.9891 7.81737 92.0451 7.81737C90.7171 7.81737 89.6851 8.16937 88.9491 8.87337C88.2131 9.57737 87.8451 10.5054 87.8451 11.6574C87.8451 12.4254 88.0211 13.0974 88.3731 13.6734C88.7251 14.2334 89.2131 14.6734 89.8371 14.9934C90.4771 15.3134 91.2131 15.4734 92.0451 15.4734ZM96.6291 0.881374H99.7491V17.6094H96.8451C96.7971 17.2414 96.7491 16.7694 96.7011 16.1934C96.6531 15.6014 96.6291 15.0494 96.6291 14.5374V0.881374ZM102.632 13.6494H105.512C105.688 14.1934 106.048 14.6414 106.592 14.9934C107.152 15.3294 107.88 15.4974 108.776 15.4974C109.384 15.4974 109.856 15.4414 110.192 15.3294C110.528 15.2174 110.76 15.0574 110.888 14.8494C111.016 14.6254 111.08 14.3774 111.08 14.1054C111.08 13.7694 110.976 13.5134 110.768 13.3374C110.56 13.1454 110.24 12.9934 109.808 12.8814C109.376 12.7694 108.824 12.6654 108.152 12.5694C107.48 12.4574 106.832 12.3214 106.208 12.1614C105.584 12.0014 105.032 11.7934 104.552 11.5374C104.072 11.2654 103.688 10.9294 103.4 10.5294C103.128 10.1134 102.992 9.60937 102.992 9.01737C102.992 8.44137 103.128 7.92937 103.4 7.48137C103.688 7.03337 104.08 6.65737 104.576 6.35337C105.088 6.04937 105.68 5.81737 106.352 5.65737C107.04 5.49737 107.776 5.41737 108.56 5.41737C109.744 5.41737 110.728 5.59337 111.512 5.94537C112.296 6.28137 112.88 6.76137 113.264 7.38537C113.664 7.99337 113.864 8.69737 113.864 9.49737H111.104C110.976 8.90537 110.72 8.48137 110.336 8.22537C109.952 7.95337 109.36 7.81737 108.56 7.81737C107.776 7.81737 107.184 7.93737 106.784 8.17737C106.384 8.41737 106.184 8.74537 106.184 9.16137C106.184 9.49737 106.304 9.76137 106.544 9.95337C106.8 10.1294 107.168 10.2734 107.648 10.3854C108.144 10.4974 108.76 10.6174 109.496 10.7454C110.12 10.8734 110.712 11.0174 111.272 11.1774C111.848 11.3374 112.36 11.5454 112.808 11.8014C113.256 12.0414 113.608 12.3694 113.864 12.7854C114.136 13.1854 114.272 13.6974 114.272 14.3214C114.272 15.0894 114.048 15.7374 113.6 16.2654C113.168 16.7934 112.544 17.2014 111.728 17.4894C110.912 17.7614 109.936 17.8974 108.8 17.8974C107.792 17.8974 106.92 17.7934 106.184 17.5854C105.464 17.3614 104.864 17.0814 104.384 16.7454C103.904 16.3934 103.528 16.0254 103.256 15.6414C103 15.2414 102.824 14.8654 102.728 14.5134C102.632 14.1614 102.6 13.8734 102.632 13.6494Z" fill="black"/>
</g>
<defs>
<filter id="filter0_d_1_428" x="0.848007" y="0.881348" width="117.424" height="25.016" filterUnits="userSpaceOnUse" color-interpolation-filters="sRGB">
<feFlood flood-opacity="0" result="BackgroundImageFix"/>
<feColorMatrix in="SourceAlpha" type="matrix" values="0 0 0 0 0 0 0 0 0 0 0 0 0 0 0 0 0 0 127 0" result="hardAlpha"/>
<feOffset dy="4"/>
<feGaussianBlur stdDeviation="2"/>
<feComposite in2="hardAlpha" operator="out"/>
<feColorMatrix type="matrix" values="0 0 0 0 0 0 0 0 0 0 0 0 0 0 0 0 0 0 0.25 0"/>
<feBlend mode="normal" in2="BackgroundImageFix" result="effect1_dropShadow_1_428"/>
<feBlend mode="normal" in="SourceGraphic" in2="effect1_dropShadow_1_428" result="shape"/>
</filter>
</defs>
</svg>
